HIERARCHY
ROOT Hips
{
    OFFSET 0.000000 0.000000 0.000000
    CHANNELS 6 Xposition Yposition Zposition Zrotation Xrotation Yrotation
    JOINT Spine
    {
        OFFSET -0.000000 7.761268 0.000000
        CHANNELS 3 Zrotation Xrotation Yrotation
        JOINT Spine1
        {
            OFFSET -0.000000 24.785763 0.000000
            CHANNELS 3 Zrotation Xrotation Yrotation
            JOINT Neck
            {
                OFFSET -0.000000 24.683973 2.243998
                CHANNELS 3 Zrotation Xrotation Yrotation
                JOINT Head
                {
                    OFFSET -0.000000 13.250945 -1.892992
                    CHANNELS 3 Zrotation Xrotation Yrotation
                    End Site
                    {
                        OFFSET -0.000000 23.662401 0.000000
                    }
                }
            }
            JOINT LeftShoulder
            {
                OFFSET 3.794134 23.444212 -0.177979
                CHANNELS 3 Zrotation Xrotation Yrotation
                JOINT LeftArm
                {
                    OFFSET 9.211075 0.000000 0.000000
                    CHANNELS 3 Zrotation Xrotation Yrotation
                    JOINT LeftForeArm
                    {
                        OFFSET 34.352840 0.000000 0.000000
                        CHANNELS 3 Zrotation Xrotation Yrotation
                        JOINT LeftHand
                        {
                            OFFSET 25.460636 0.000000 0.000000
                            CHANNELS 3 Zrotation Xrotation Yrotation
                            End Site
                            {
                                OFFSET 14.197442 0.000000 0.000000
                            }
                        }
                    }
                }
            }
            JOINT RightShoulder
            {
                OFFSET -3.767389 23.444212 -0.177979
                CHANNELS 3 Zrotation Xrotation Yrotation
                JOINT RightArm
                {
                    OFFSET -9.211075 0.000000 0.000000
                    CHANNELS 3 Zrotation Xrotation Yrotation
                    JOINT RightForeArm
                    {
                        OFFSET -34.352840 0.000000 0.000000
                        CHANNELS 3 Zrotation Xrotation Yrotation
                        JOINT RightHand
                        {
                            OFFSET -25.460636 0.000000 0.000000
                            CHANNELS 3 Zrotation Xrotation Yrotation
                            End Site
                            {
                                OFFSET -14.197442 0.000000 0.000000
                            }
                        }
                    }
                }
            }
        }
    }
    JOINT LeftUpLeg
    {
        OFFSET 9.464960 0.000000 0.000000
        CHANNELS 3 Zrotation Xrotation Yrotation
        JOINT LeftLeg
        {
            OFFSET -0.000000 -36.073700 0.000000
            CHANNELS 3 Zrotation Xrotation Yrotation
            JOINT LeftFoot
            {
                OFFSET -0.000000 -40.808823 0.000000
                CHANNELS 3 Zrotation Xrotation Yrotation
                JOINT LeftToeBase
                {
                    OFFSET -0.000000 -6.152224 14.197442
                    CHANNELS 3 Zrotation Xrotation Yrotation
                    End Site
                    {
                        OFFSET -0.000000 0.000000 3.785984
                    }
                }
            }
        }
    }
    JOINT RightUpLeg
    {
        OFFSET -9.464960 0.000000 0.000000
        CHANNELS 3 Zrotation Xrotation Yrotation
        JOINT RightLeg
        {
            OFFSET -0.000000 -36.073700 0.000000
            CHANNELS 3 Zrotation Xrotation Yrotation
            JOINT RightFoot
            {
                OFFSET -0.000000 -40.808823 0.000000
                CHANNELS 3 Zrotation Xrotation Yrotation
                JOINT RightToeBase
                {
                    OFFSET -0.000000 -6.152224 14.197442
                    CHANNELS 3 Zrotation Xrotation Yrotation
                    End Site
                    {
                        OFFSET -0.000000 0.000000 3.785984
                    }
                }
            }
        }
    }
}
MOTION
Frames:    9
Frame Time:    0.004000
-24.066420    78.554359    -198.238220    0.887688    -0.006543    12.211707    0.367969    -6.615758    -0.022968    -2.138380    -0.125055    -0.046361    -0.721878    22.867525    -4.673392    3.384192    6.121275    -4.608140    12.880228    0.663534    -7.410929    -11.382200    -1.769893    -3.946175    2.060436    2.195544    -3.695374    -5.960150    2.274713    -0.245168    -13.263555    0.398385    -0.184120    14.238209    -3.438794    -3.213308    -2.147929    0.094280    2.579886    1.718734    0.167750    1.643682    -1.436779    5.071977    1.288203    0.999233    -0.300732    -3.782097    0.906042    -5.327478    9.557220    0.000000    0.000000    0.000000    0.508545    12.301339    -2.477816    1.011229    -11.514757    0.182044    -3.366586    -1.804879    -30.596107    0.000000    0.000000    0.000000    
-24.034258    78.553566    -198.238556    0.871238    0.011401    12.190144    0.394027    -6.652354    -0.015411    -2.120661    -0.111761    -0.040599    -0.789966    22.839647    -4.652543    3.375649    6.133865    -4.591681    12.847389    0.693038    -7.419202    -11.393126    -1.738572    -3.936495    2.079308    2.166042    -3.690396    -5.986293    2.245867    -0.246324    -13.252568    0.419534    -0.182025    14.206838    -3.506917    -3.203561    -2.153636    0.123136    2.578223    1.771751    0.197499    1.673215    -1.533064    5.090555    1.421345    1.157183    -0.391521    -3.655920    0.834404    -5.282004    9.313250    0.000000    0.000000    0.000000    0.504981    12.286461    -2.481670    0.999111    -11.524457    0.191467    -3.426294    -1.779262    -30.569933    0.000000    0.000000    0.000000    
-24.003931    78.555687    -198.236160    0.857214    0.008825    12.165929    0.430240    -6.668898    -0.002912    -2.118496    -0.092753    -0.030738    -0.855806    22.827631    -4.633349    3.376128    6.105480    -4.574877    12.822330    0.701148    -7.411072    -11.400227    -1.702175    -3.947782    2.068401    2.144105    -3.694337    -5.916934    2.222593    -0.228367    -13.246938    0.361777    -0.180635    14.187228    -3.501115    -3.226252    -2.131780    0.159362    2.585675    1.691597    0.233262    1.748984    -1.551873    5.127142    1.456119    1.177617    -0.442883    -3.584603    0.800044    -5.275315    9.229102    0.000000    0.000000    0.000000    0.516665    12.278371    -2.525747    0.972676    -11.512379    0.143637    -3.402232    -1.774201    -30.478418    0.000000    0.000000    0.000000    
-23.971180    78.553032    -198.235184    0.848437    0.001065    12.131796    0.459467    -6.673240    0.009653    -2.106748    -0.080882    -0.020459    -0.907053    22.808121    -4.612958    3.335789    6.100142    -4.560168    12.807751    0.714115    -7.396760    -11.427719    -1.645126    -3.956084    2.085369    2.109699    -3.687964    -6.000034    2.189839    -0.248819    -13.253933    0.357454    -0.170561    14.190536    -3.475916    -3.239848    -2.187355    0.044739    2.598479    1.672654    0.120830    1.811480    -1.571632    5.178591    1.479295    1.191084    -0.519859    -3.566843    0.838894    -5.258105    9.198465    0.000000    0.000000    0.000000    0.500131    12.288278    -2.508537    0.972806    -11.514365    0.177584    -3.358768    -1.799601    -30.507732    0.000000    0.000000    0.000000    
-23.939240    78.552780    -198.238205    0.835492    0.013731    12.108406    0.483125    -6.700858    0.018389    -2.079347    -0.064774    -0.010880    -0.995600    22.791058    -4.594524    3.336926    6.076583    -4.545581    12.768727    0.746468    -7.402546    -11.432322    -1.612924    -3.952662    2.110582    1.996563    -3.686430    -6.042218    2.077384    -0.245225    -13.272264    0.376303    -0.184779    14.196838    -3.484861    -3.223717    -2.174909    0.014077    2.634897    1.449908    0.086635    1.753746    -1.582269    5.179016    1.476620    1.188298    -0.531612    -3.567888    0.839957    -5.250457    9.222690    0.000000    0.000000    0.000000    0.488399    12.271781    -2.501895    0.968399    -11.517038    0.180356    -3.384808    -1.778424    -30.506624    0.000000    0.000000    0.000000    
-23.906710    78.552559    -198.235703    0.826843    -0.002282    12.081898    0.517534    -6.698286    0.030283    -2.073113    -0.053117    -0.005772    -1.041536    22.767271    -4.574782    3.296217    6.083535    -4.531540    12.739841    0.753687    -7.401010    -11.436848    -1.636096    -3.947831    2.163335    2.079399    -3.641468    -6.411121    2.169960    -0.389578    -13.275707    0.374638    -0.175556    14.198938    -3.488790    -3.235222    -2.233461    -0.051299    2.631203    1.845488    0.047345    1.903961    -1.587379    5.218230    1.488764    1.178489    -0.559389    -3.558184    0.816826    -5.260174    9.208849    0.000000    0.000000    0.000000    0.591944    12.279789    -2.770777    0.801591    -11.547289    -0.024673    -3.281977    -1.737227    -30.081003    0.000000    0.000000    0.000000    
-23.878544    78.554855    -198.236771    0.811399    0.011047    12.069451    0.543998    -6.722664    0.031949    -2.061589    -0.043256    -0.006134    -1.113984    22.736732    -4.551098    3.293562    6.089889    -4.511517    12.713577    0.775841    -7.377252    -11.441854    -1.591840    -3.967226    2.113903    2.161711    -3.619269    -5.741753    2.250148    -0.431870    -13.276472    0.374934    -0.183690    14.184999    -3.517690    -3.229420    -2.205838    -0.018388    2.658585    1.788189    0.063654    1.908408    -1.589459    5.230824    1.516610    1.173853    -0.600367    -3.587041    0.850601    -5.236198    9.208762    0.000000    0.000000    0.000000    0.590193    12.270686    -2.774855    0.792241    -11.562712    -0.033006    -3.239538    -1.714154    -30.061930    0.000000    0.000000    0.000000    
-23.849941    78.552780    -198.244888    0.796188    0.022438    12.041155    0.579065    -6.737216    0.034083    -2.060614    -0.036391    0.011450    -1.172012    22.702614    -4.531787    3.286367    6.102661    -4.495638    12.696754    0.777308    -7.373404    -11.456490    -1.567050    -3.965484    2.113456    2.165119    -3.618227    -5.769971    2.255220    -0.463632    -13.271247    0.386746    -0.180530    14.183012    -3.532964    -3.231937    -2.204159    -0.017345    2.682154    1.746769    0.063627    1.885961    -1.593171    5.228036    1.543882    1.162052    -0.609872    -3.572621    0.838012    -5.264338    9.197480    0.000000    0.000000    0.000000    0.503159    12.250110    -2.599054    0.907088    -11.530178    0.141704    -3.356509    -1.732412    -30.351997    0.000000    0.000000    0.000000    
-23.819960    78.553673    -198.247711    0.779323    0.036003    12.035388    0.613226    -6.760466    0.036220    -2.055829    -0.031522    0.009692    -1.230651    22.686670    -4.512468    3.265985    6.091318    -4.480463    12.678430    0.796104    -7.382852    -11.473510    -1.520387    -3.955039    2.120710    2.148460    -3.623144    -5.778740    2.238937    -0.464181    -13.274283    0.390301    -0.177102    14.186115    -3.502310    -3.243622    -2.203498    -0.052115    2.709381    1.718129    0.028199    1.887914    -1.604872    5.234958    1.578815    1.174939    -0.655833    -3.585573    0.845421    -5.247815    9.159503    0.000000    0.000000    0.000000    0.501487    12.235676    -2.594548    0.893583    -11.530202    0.144645    -3.272468    -1.738450    -30.368786    0.000000    0.000000    0.000000    
